<svg width="52" height="52" viewBox="0 0 52 52" fill="none" xmlns="http://www.w3.org/2000/svg">
<path d="M3.83496 38.0657C4.19954 38.0657 4.49577 37.9654 4.72363 37.7649C4.9515 37.5644 5.06999 37.2978 5.0791 36.9651H6.93164C6.92708 37.4664 6.79036 37.9267 6.52148 38.346C6.2526 38.7607 5.88346 39.0842 5.41406 39.3167C4.94922 39.5445 4.43424 39.6585 3.86914 39.6585C2.81185 39.6585 1.97786 39.3235 1.36719 38.6536C0.75651 37.9791 0.451172 37.0494 0.451172 35.8645V35.7346C0.451172 34.5953 0.754232 33.6861 1.36035 33.0071C1.96647 32.3281 2.79818 31.9885 3.85547 31.9885C4.7806 31.9885 5.52116 32.2529 6.07715 32.7815C6.6377 33.3056 6.92253 34.0051 6.93164 34.8801H5.0791C5.06999 34.4973 4.9515 34.1874 4.72363 33.9505C4.49577 33.7089 4.19499 33.5882 3.82129 33.5882C3.361 33.5882 3.01237 33.7568 2.77539 34.094C2.54297 34.4267 2.42676 34.969 2.42676 35.721V35.926C2.42676 36.6871 2.54297 37.234 2.77539 37.5667C3.00781 37.8993 3.361 38.0657 3.83496 38.0657ZM9.9873 32.9319C10.5114 32.303 11.1699 31.9885 11.9629 31.9885C13.5671 31.9885 14.3805 32.9205 14.4033 34.7844V39.5217H12.4277V34.8391C12.4277 34.4153 12.3366 34.1031 12.1543 33.9026C11.972 33.6975 11.6689 33.595 11.2451 33.595C10.6663 33.595 10.2471 33.8183 9.9873 34.2649V39.5217H8.01172V29.0217H9.9873V32.9319ZM20.1797 39.5217C20.0885 39.344 20.0225 39.123 19.9814 38.8587C19.5029 39.3919 18.8809 39.6585 18.1152 39.6585C17.3906 39.6585 16.7891 39.4488 16.3105 39.0296C15.8366 38.6103 15.5996 38.0816 15.5996 37.4436C15.5996 36.6598 15.889 36.0582 16.4678 35.6389C17.0511 35.2197 17.8919 35.0077 18.9902 35.0032H19.8994V34.5794C19.8994 34.2376 19.8105 33.9641 19.6328 33.759C19.4596 33.554 19.1839 33.4514 18.8057 33.4514C18.473 33.4514 18.2109 33.5312 18.0195 33.6907C17.8327 33.8502 17.7393 34.0689 17.7393 34.3469H15.7637C15.7637 33.9186 15.8958 33.5221 16.1602 33.1575C16.4245 32.7929 16.7982 32.5081 17.2812 32.303C17.7643 32.0934 18.3066 31.9885 18.9082 31.9885C19.8197 31.9885 20.542 32.2187 21.0752 32.679C21.613 33.1347 21.8818 33.7773 21.8818 34.6067V37.8128C21.8864 38.5146 21.9844 39.0455 22.1758 39.4055V39.5217H20.1797ZM18.5459 38.1477C18.8376 38.1477 19.1064 38.0839 19.3525 37.9563C19.5986 37.8242 19.7809 37.6487 19.8994 37.4299V36.1585H19.1611C18.1722 36.1585 17.6458 36.5003 17.582 37.1839L17.5752 37.3001C17.5752 37.5462 17.6618 37.749 17.835 37.9085C18.0081 38.068 18.2451 38.1477 18.5459 38.1477ZM25.2178 32.1253L25.2793 32.9798C25.8079 32.3189 26.5166 31.9885 27.4053 31.9885C28.1891 31.9885 28.7725 32.2187 29.1553 32.679C29.5381 33.1393 29.734 33.8274 29.7432 34.7434V39.5217H27.7676V34.7913C27.7676 34.372 27.6764 34.0689 27.4941 33.8821C27.3118 33.6907 27.0088 33.595 26.585 33.595C26.029 33.595 25.612 33.832 25.334 34.3059V39.5217H23.3584V32.1253H25.2178ZM30.96 35.7688C30.96 34.634 31.2288 33.7203 31.7666 33.0276C32.3089 32.3349 33.0381 31.9885 33.9541 31.9885C34.7653 31.9885 35.3965 32.2665 35.8477 32.8225L35.9297 32.1253H37.7207V39.2757C37.7207 39.9228 37.5726 40.4856 37.2764 40.9641C36.9847 41.4426 36.5723 41.8072 36.0391 42.0579C35.5059 42.3085 34.8815 42.4339 34.166 42.4339C33.6237 42.4339 33.0951 42.3245 32.5801 42.1057C32.0651 41.8915 31.6755 41.6135 31.4111 41.2717L32.2861 40.0686C32.7783 40.6201 33.3753 40.8958 34.0771 40.8958C34.6012 40.8958 35.0091 40.7545 35.3008 40.4719C35.5924 40.1939 35.7383 39.7975 35.7383 39.2825V38.886C35.2826 39.401 34.6833 39.6585 33.9404 39.6585C33.0518 39.6585 32.3317 39.3121 31.7803 38.6194C31.2334 37.9221 30.96 36.9993 30.96 35.8508V35.7688ZM32.9355 35.9124C32.9355 36.5823 33.07 37.1087 33.3389 37.4915C33.6077 37.8697 33.9769 38.0589 34.4463 38.0589C35.0479 38.0589 35.4785 37.8333 35.7383 37.3821V34.2717C35.474 33.8206 35.0479 33.595 34.46 33.595C33.986 33.595 33.6123 33.7887 33.3389 34.176C33.07 34.5634 32.9355 35.1422 32.9355 35.9124ZM42.6494 39.6585C41.5648 39.6585 40.6807 39.3258 39.9971 38.6604C39.318 37.9951 38.9785 37.1087 38.9785 36.0012V35.8098C38.9785 35.067 39.1221 34.4039 39.4092 33.8206C39.6963 33.2327 40.1019 32.7815 40.626 32.4671C41.1546 32.148 41.7562 31.9885 42.4307 31.9885C43.4424 31.9885 44.2376 32.3076 44.8164 32.9456C45.3997 33.5836 45.6914 34.4882 45.6914 35.6594V36.4661H40.9814C41.0452 36.9492 41.2367 37.3365 41.5557 37.6282C41.8792 37.9199 42.2871 38.0657 42.7793 38.0657C43.5404 38.0657 44.1351 37.79 44.5635 37.2385L45.5342 38.3255C45.238 38.7447 44.8369 39.0729 44.3311 39.3098C43.8252 39.5423 43.2646 39.6585 42.6494 39.6585ZM42.4238 33.5882C42.0319 33.5882 41.7129 33.7203 41.4668 33.9846C41.2253 34.249 41.0703 34.6272 41.002 35.1194H43.75V34.9622C43.7409 34.5247 43.6224 34.1874 43.3945 33.9505C43.1667 33.7089 42.8431 33.5882 42.4238 33.5882Z" fill="#2A1D5D"/>
<path d="M22.1291 13.8984L27.7541 4.64062H32.8166L24.5197 17.1797L33.0744 30H28.0587L22.1994 20.5078L16.34 30H11.3009L19.8556 17.1797L11.5587 4.64062H16.5744L22.1291 13.8984Z" fill="#2A1D5D"/>
</svg>
